<?xml version="1.0" encoding="UTF-8" standalone="no"?>
<!-- Created with Inkscape (http://www.inkscape.org/) -->

<svg
   width="21.49122mm"
   height="32.248131mm"
   viewBox="0 0 21.49122 32.248131"
   version="1.1"
   id="svg1"
   inkscape:version="1.4 (e7c3feb1, 2024-10-09)"
   sodipodi:docname="logo_no_bkg.svg"
   xmlns:inkscape="http://www.inkscape.org/namespaces/inkscape"
   xmlns:sodipodi="http://sodipodi.sourceforge.net/DTD/sodipodi-0.dtd"
   xmlns="http://www.w3.org/2000/svg"
   xmlns:svg="http://www.w3.org/2000/svg">
  <sodipodi:namedview
     id="namedview1"
     pagecolor="#ffffff"
     bordercolor="#000000"
     borderopacity="0.25"
     inkscape:showpageshadow="2"
     inkscape:pageopacity="0.0"
     inkscape:pagecheckerboard="0"
     inkscape:deskcolor="#d1d1d1"
     inkscape:document-units="mm"
     inkscape:zoom="3.086053"
     inkscape:cx="16.687983"
     inkscape:cy="41.15289"
     inkscape:window-width="1632"
     inkscape:window-height="881"
     inkscape:window-x="0"
     inkscape:window-y="25"
     inkscape:window-maximized="0"
     inkscape:current-layer="layer1" />
  <defs
     id="defs1" />
  <g
     inkscape:label="Layer 1"
     inkscape:groupmode="layer"
     id="layer1"
     transform="translate(-30.42708,-132.82083)">
    <path
       style="font-size:3.59369px;font-family:'Corsiva Hebrew';-inkscape-font-specification:'Corsiva Hebrew';text-align:center;letter-spacing:7.83167px;text-anchor:middle;fill:#ffffff;stroke:#ffffff;stroke-width:0.20837;stroke-linecap:round;stroke-linejoin:round"
       d="m 32.66914,157.71045 h -0.435173 l -0.78612,-0.85806 -0.214077,0.20354 v 0.65452 h -0.329889 v -2.73036 h 0.329889 v 1.75122 l 0.952819,-0.9809 h 0.415872 l -0.910706,0.90545 z m 9.784686,-0.9458 h -1.444144 q 0,0.18074 0.0544,0.31585 0.0544,0.13336 0.149152,0.21934 0.09125,0.0842 0.215832,0.12634 0.126341,0.0421 0.277247,0.0421 0.20004,0 0.401834,-0.079 0.203549,-0.0807 0.289531,-0.15792 h 0.01755 v 0.35972 q -0.1667,0.0702 -0.340418,0.11756 -0.173718,0.0474 -0.364984,0.0474 -0.487815,0 -0.761554,-0.26321 -0.273738,-0.26496 -0.273738,-0.75102 0,-0.4808 0.261455,-0.76331 0.26321,-0.28251 0.691365,-0.28251 0.396569,0 0.610646,0.23162 0.215832,0.23163 0.215832,0.65803 z m -0.321116,-0.25268 q -0.0018,-0.2597 -0.131605,-0.40184 Q 41.87301,155.968 41.6098,155.968 q -0.264964,0 -0.42289,0.15617 -0.156171,0.15617 -0.177228,0.3878 z m 10.291804,1.19848 h -0.32989 v -1.11601 q 0,-0.13511 -0.01579,-0.25268 -0.01579,-0.11932 -0.05791,-0.186 -0.04387,-0.0737 -0.126341,-0.1088 -0.08247,-0.0369 -0.214077,-0.0369 -0.135115,0 -0.282512,0.0667 -0.147397,0.0667 -0.282512,0.17021 v 1.46345 h -0.329889 v -1.96004 h 0.329889 v 0.21759 q 0.154417,-0.12809 0.319361,-0.20004 0.164945,-0.0719 0.338664,-0.0719 0.317606,0 0.484305,0.19126 0.1667,0.19127 0.1667,0.55099 z"
       id="text17-85-1-5-1"
       transform="scale(0.98820332,1.0119375)"
       aria-label="ken&#10;" />
    <path
       style="font-size:3.59369px;font-family:'Noto Sans Mandaic';-inkscape-font-specification:'Noto Sans Mandaic';text-align:center;letter-spacing:1.40229px;text-anchor:middle;fill:#ffffff;stroke:#ffffff;stroke-width:0.20837;stroke-linecap:round;stroke-linejoin:round"
       d="m 32.72569,161.34999 h -1.444144 q 0,0.18074 0.0544,0.31585 0.0544,0.13336 0.149152,0.21934 0.09125,0.0842 0.215832,0.12635 0.126341,0.0421 0.277247,0.0421 0.20004,0 0.401834,-0.079 0.203549,-0.0807 0.289531,-0.15793 h 0.01755 v 0.35972 q -0.1667,0.0702 -0.340418,0.11757 -0.173718,0.0474 -0.364984,0.0474 -0.487815,0 -0.761553,-0.26321 -0.273739,-0.26496 -0.273739,-0.75102 0,-0.4808 0.261455,-0.76331 0.26321,-0.28251 0.691365,-0.28251 0.396569,0 0.610646,0.23162 0.215832,0.23163 0.215832,0.65803 z m -0.321116,-0.25268 q -0.0018,-0.2597 -0.131605,-0.40183 -0.128095,-0.14214 -0.391305,-0.14214 -0.264964,0 -0.42289,0.15617 -0.156171,0.15618 -0.177228,0.3878 z m 3.62378,0.63346 q 0,0.26847 -0.222851,0.44044 -0.221096,0.17196 -0.605382,0.17196 -0.217587,0 -0.400079,-0.0509 -0.180737,-0.0526 -0.303568,-0.11406 v -0.37024 h 0.01755 q 0.156171,0.11756 0.347437,0.18775 0.191265,0.0684 0.366739,0.0684 0.217586,0 0.340417,-0.0702 0.122832,-0.0702 0.122832,-0.2211 0,-0.11581 -0.06668,-0.17547 -0.06668,-0.0597 -0.256191,-0.10178 -0.07019,-0.0158 -0.184247,-0.0369 -0.112303,-0.0211 -0.205303,-0.0456 -0.257946,-0.0684 -0.366739,-0.20004 -0.107039,-0.13336 -0.107039,-0.32638 0,-0.12107 0.04913,-0.22811 0.05089,-0.10704 0.152661,-0.19127 0.09827,-0.0825 0.249172,-0.12985 0.152662,-0.0491 0.340418,-0.0491 0.175473,0 0.354456,0.0439 0.180737,0.0421 0.300059,0.10353 v 0.3527 h -0.01755 q -0.126341,-0.093 -0.307078,-0.15617 -0.180738,-0.0649 -0.354456,-0.0649 -0.180738,0 -0.305323,0.0702 -0.124586,0.0684 -0.124586,0.2053 0,0.12108 0.07545,0.1825 0.0737,0.0614 0.238644,0.10002 0.09125,0.0211 0.203548,0.0421 0.114058,0.0211 0.189511,0.0386 0.22987,0.0526 0.354456,0.18074 0.124586,0.12985 0.124586,0.34393 z m 3.599214,-0.43868 q 0,0.23864 -0.06843,0.43692 -0.06843,0.19653 -0.19302,0.3334 -0.115812,0.12985 -0.273738,0.2018 -0.156171,0.0702 -0.331644,0.0702 -0.152662,0 -0.277248,-0.0333 -0.122831,-0.0333 -0.250927,-0.10353 v 0.82121 h -0.329889 v -2.68298 h 0.329889 v 0.2053 q 0.131605,-0.11055 0.294795,-0.18425 0.164945,-0.0754 0.350947,-0.0754 0.354455,0 0.550985,0.26847 0.198285,0.26672 0.198285,0.74226 z m -0.340418,0.009 q 0,-0.35446 -0.121076,-0.52993 -0.121077,-0.17547 -0.372003,-0.17547 -0.142134,0 -0.286022,0.0614 -0.143888,0.0614 -0.275493,0.16144 v 1.11074 q 0.140379,0.0632 0.240399,0.086 0.101774,0.0228 0.229869,0.0228 0.275493,0 0.42991,-0.18601 0.154416,-0.186 0.154416,-0.55098 z m 3.779951,0.99493 h -0.328135 v -0.20881 q -0.04387,0.0298 -0.119322,0.0842 -0.0737,0.0526 -0.143888,0.0842 -0.08247,0.0404 -0.189511,0.0667 -0.107038,0.0281 -0.250926,0.0281 -0.264965,0 -0.449212,-0.17547 -0.184246,-0.17548 -0.184246,-0.44746 0,-0.22285 0.09476,-0.35972 0.09651,-0.13863 0.273738,-0.21759 0.178983,-0.079 0.429909,-0.10704 0.250927,-0.0281 0.538703,-0.0421 v -0.0509 q 0,-0.1123 -0.04036,-0.186 -0.0386,-0.0737 -0.112303,-0.11581 -0.07019,-0.0404 -0.168454,-0.0544 -0.09827,-0.014 -0.205303,-0.014 -0.129851,0 -0.289531,0.0351 -0.159681,0.0333 -0.32989,0.0983 h -0.01755 v -0.33515 q 0.09651,-0.0263 0.279002,-0.0579 0.182492,-0.0316 0.35972,-0.0316 0.207059,0 0.35972,0.0351 0.154417,0.0333 0.266719,0.11582 0.110548,0.0807 0.168455,0.20881 0.05791,0.12809 0.05791,0.31761 z m -0.328135,-0.48255 v -0.54572 q -0.150907,0.009 -0.356211,0.0263 -0.203548,0.0175 -0.32287,0.0509 -0.142133,0.0404 -0.22987,0.12634 -0.08774,0.0842 -0.08774,0.23338 0,0.16845 0.101774,0.25443 0.101774,0.0842 0.310587,0.0842 0.173719,0 0.317607,-0.0667 0.143888,-0.0684 0.266719,-0.16319 z m 3.588685,-1.11776 h -0.01755 q -0.0737,-0.0175 -0.143888,-0.0246 -0.06843,-0.009 -0.16319,-0.009 -0.152661,0 -0.294795,0.0684 -0.142133,0.0667 -0.273738,0.17372 v 1.3915 h -0.329889 v -1.96003 h 0.329889 v 0.28953 q 0.19653,-0.15793 0.345682,-0.22285 0.150907,-0.0667 0.307078,-0.0667 0.08598,0 0.124586,0.005 0.0386,0.004 0.115812,0.0158 z m 2.730622,1.58276 q -0.093,0.0246 -0.203548,0.0404 -0.108794,0.0158 -0.194776,0.0158 -0.300059,0 -0.45623,-0.16144 -0.156171,-0.16143 -0.156171,-0.51765 V 160.613 h -0.222851 v -0.27724 h 0.222851 v -0.56327 h 0.32989 v 0.56327 h 0.680835 v 0.27724 h -0.680835 v 0.89316 q 0,0.15442 0.007,0.24216 0.007,0.086 0.04913,0.16143 0.0386,0.0702 0.105284,0.10353 0.06843,0.0316 0.207058,0.0316 0.08072,0 0.168454,-0.0228 0.08774,-0.0246 0.126341,-0.0404 h 0.01755 z m 3.323721,0.0175 h -0.328135 v -0.20881 q -0.04387,0.0298 -0.119322,0.0842 -0.0737,0.0526 -0.143888,0.0842 -0.08247,0.0404 -0.189511,0.0667 -0.107039,0.0281 -0.250927,0.0281 -0.264964,0 -0.449211,-0.17547 -0.184247,-0.17548 -0.184247,-0.44746 0,-0.22285 0.09476,-0.35972 0.09651,-0.13863 0.273738,-0.21759 0.178983,-0.079 0.429909,-0.10704 0.250927,-0.0281 0.538703,-0.0421 v -0.0509 q 0,-0.1123 -0.04036,-0.186 -0.0386,-0.0737 -0.112303,-0.11581 -0.07019,-0.0404 -0.168454,-0.0544 -0.09826,-0.014 -0.205304,-0.014 -0.12985,0 -0.28953,0.0351 -0.159681,0.0333 -0.32989,0.0983 h -0.01755 v -0.33515 q 0.09651,-0.0263 0.279002,-0.0579 0.182492,-0.0316 0.35972,-0.0316 0.207058,0 0.35972,0.0351 0.154416,0.0333 0.266719,0.11582 0.110548,0.0807 0.168454,0.20881 0.05791,0.12809 0.05791,0.31761 z m -0.328135,-0.48255 v -0.54572 q -0.150907,0.009 -0.356211,0.0263 -0.203549,0.0175 -0.32287,0.0509 -0.142134,0.0404 -0.22987,0.12634 -0.08774,0.0842 -0.08774,0.23338 0,0.16845 0.101775,0.25443 0.101774,0.0842 0.310587,0.0842 0.173719,0 0.317607,-0.0667 0.143888,-0.0684 0.266719,-0.16319 z"
       id="text17-85-1-5-1-6"
       transform="scale(0.98820332,1.0119375)"
       aria-label="esparta" />
    <g
       id="g50"
       transform="translate(-376.84794,293.66925)">
      <path
         style="fill:none;fill-opacity:1;stroke:#ffffff;stroke-width:1;stroke-linecap:round;stroke-linejoin:round;stroke-dasharray:none;stroke-opacity:1"
         d="m 418.00922,-139.819 h 10.25702"
         id="path34-3-5-1-1-5" />
      <path
         style="fill:none;fill-opacity:1;stroke:#ffffff;stroke-width:1;stroke-linecap:round;stroke-linejoin:round;stroke-dasharray:none;stroke-opacity:1"
         d="m 417.98241,-160.34841 h 10.25702"
         id="path34-3-5-1-1-9-6" />
      <path
         style="fill:none;fill-opacity:1;stroke:#ffffff;stroke-width:1;stroke-linecap:round;stroke-linejoin:round;stroke-dasharray:none;stroke-opacity:1"
         d="m 407.77502,-139.819 v -20.52941"
         id="path34-3-5-1-1-9-7-79"
         sodipodi:nodetypes="cc" />
      <path
         style="fill:none;stroke:#ffffff;stroke-width:1;stroke-linecap:round;stroke-linejoin:round;stroke-dasharray:none"
         id="path2-90-4"
         sodipodi:type="arc"
         sodipodi:cx="407.74231"
         sodipodi:cy="160.34842"
         sodipodi:rx="10.240116"
         sodipodi:ry="10.240116"
         sodipodi:start="4.7160766"
         sodipodi:end="0"
         sodipodi:open="true"
         sodipodi:arc-type="arc"
         d="m 407.78007,150.10837 a 10.240116,10.240116 0 0 1 10.20236,10.24005"
         transform="scale(1,-1)" />
      <path
         style="fill:none;stroke:#ffffff;stroke-width:1;stroke-linecap:round;stroke-linejoin:round;stroke-dasharray:none"
         id="path2-6-2-1"
         sodipodi:type="arc"
         sodipodi:cx="407.74231"
         sodipodi:cy="-139.86819"
         sodipodi:rx="10.240116"
         sodipodi:ry="10.240116"
         sodipodi:start="4.7156415"
         sodipodi:end="0"
         sodipodi:open="true"
         sodipodi:arc-type="arc"
         d="m 407.77562,-150.10826 a 10.240116,10.240116 0 0 1 10.20681,10.24007" />
      <path
         style="fill:none;stroke:#ffffff;stroke-width:1;stroke-linecap:round;stroke-linejoin:round;stroke-dasharray:none"
         id="path2-9-3-6"
         sodipodi:type="arc"
         sodipodi:cx="-428.21661"
         sodipodi:cy="-139.86819"
         sodipodi:rx="10.240116"
         sodipodi:ry="10.240116"
         sodipodi:start="4.712389"
         sodipodi:end="0"
         sodipodi:open="true"
         sodipodi:arc-type="arc"
         d="m -428.21661,-150.10831 a 10.240116,10.240116 0 0 1 10.24011,10.24012"
         transform="scale(-1,1)" />
      <path
         style="fill:none;stroke:#ffffff;stroke-width:1;stroke-linecap:round;stroke-linejoin:round;stroke-dasharray:none"
         id="path2-9-7-9-1"
         sodipodi:type="arc"
         sodipodi:cx="-428.22253"
         sodipodi:cy="160.34842"
         sodipodi:rx="10.240116"
         sodipodi:ry="10.240116"
         sodipodi:start="4.712389"
         sodipodi:end="0"
         sodipodi:open="true"
         sodipodi:arc-type="arc"
         d="m -428.22253,150.1083 a 10.240116,10.240116 0 0 1 10.24011,10.24012"
         transform="scale(-1)" />
    </g>
  </g>
</svg>
